<svg width="64" height="64" viewBox="0 0 64 64" fill="none" xmlns="http://www.w3.org/2000/svg">
<g clip-path="url(#clip0_85_3800)">
<path d="M32 5.33398L32.312 5.35265C32.9072 5.42285 33.4614 5.69153 33.8853 6.11535C34.3091 6.53917 34.5778 7.09341 34.648 7.68865L34.6666 8.00065V18.6673L34.68 19.0673C34.7754 20.3371 35.322 21.5309 36.2209 22.4327C37.1199 23.3346 38.3118 23.8851 39.5813 23.9847L40 24.0007H50.6666L50.9786 24.0193C51.5739 24.0895 52.1281 24.3582 52.5519 24.782C52.9757 25.2058 53.2444 25.7601 53.3146 26.3553L53.3333 26.6673V50.6673C53.3334 52.7079 52.5538 54.6714 51.1539 56.156C49.754 57.6407 47.8397 58.5343 45.8026 58.654L45.3333 58.6673H18.6666C16.6261 58.6674 14.6626 57.8878 13.1779 56.4879C11.6933 55.088 10.7997 53.1737 10.68 51.1367L10.6666 50.6673V13.334C10.6665 11.2934 11.4462 9.32994 12.846 7.84529C14.2459 6.36063 16.1602 5.46703 18.1973 5.34732L18.6666 5.33398H32ZM37.3333 45.334H26.6666C25.9594 45.334 25.2811 45.6149 24.781 46.115C24.2809 46.6151 24 47.2934 24 48.0006C24 48.7079 24.2809 49.3862 24.781 49.8863C25.2811 50.3864 25.9594 50.6673 26.6666 50.6673H37.3333C38.0405 50.6673 38.7188 50.3864 39.2189 49.8863C39.719 49.3862 40 48.7079 40 48.0006C40 47.2934 39.719 46.6151 39.2189 46.115C38.7188 45.6149 38.0405 45.334 37.3333 45.334ZM32 26.6673C31.2927 26.6673 30.6144 26.9483 30.1143 27.4484C29.6142 27.9485 29.3333 28.6267 29.3333 29.334V32.0006H26.6666C25.9594 32.0006 25.2811 32.2816 24.781 32.7817C24.2809 33.2818 24 33.9601 24 34.6673C24 35.3746 24.2809 36.0528 24.781 36.5529C25.2811 37.053 25.9594 37.334 26.6666 37.334H29.3333V40.0006C29.3333 40.7079 29.6142 41.3862 30.1143 41.8863C30.6144 42.3864 31.2927 42.6673 32 42.6673C32.7072 42.6673 33.3855 42.3864 33.8856 41.8863C34.3857 41.3862 34.6666 40.7079 34.6666 40.0006V37.334H37.3333C38.0405 37.334 38.7188 37.053 39.2189 36.5529C39.719 36.0528 40 35.3746 40 34.6673C40 33.9601 39.719 33.2818 39.2189 32.7817C38.7188 32.2816 38.0405 32.0006 37.3333 32.0006H34.6666V29.334C34.6666 28.6267 34.3857 27.9485 33.8856 27.4484C33.3855 26.9483 32.7072 26.6673 32 26.6673Z" fill="#98A2B3"/>
<path d="M50.6666 18.6674H40L39.9973 7.99805L50.6666 18.6674Z" fill="#98A2B3"/>
</g>
<defs>
<clipPath id="clip0_85_3800">
<rect width="64" height="64" fill="white"/>
</clipPath>
</defs>
</svg>
