<svg width="29" height="22" viewBox="0 0 29 22" fill="none" xmlns="http://www.w3.org/2000/svg">
<rect y="0.5" width="29" height="21" rx="10.5" fill="#364152"/>
<path d="M7.97159 6.77273V15.5H6.91477V7.88068H6.86364L4.73295 9.29545V8.22159L6.91477 6.77273H7.97159ZM10.4815 15.5V14.733L13.3622 11.5795C13.7003 11.2102 13.9787 10.8892 14.1974 10.6165C14.4162 10.3409 14.5781 10.0824 14.6832 9.84091C14.7912 9.59659 14.8452 9.34091 14.8452 9.07386C14.8452 8.76705 14.7713 8.50142 14.6236 8.27699C14.4787 8.05256 14.2798 7.87926 14.027 7.7571C13.7741 7.63494 13.4901 7.57386 13.1747 7.57386C12.8395 7.57386 12.5469 7.64347 12.2969 7.78267C12.0497 7.91903 11.858 8.1108 11.7216 8.35795C11.5881 8.60511 11.5213 8.89489 11.5213 9.22727H10.5156C10.5156 8.71591 10.6335 8.26705 10.8693 7.88068C11.1051 7.49432 11.4261 7.19318 11.8324 6.97727C12.2415 6.76136 12.7003 6.65341 13.2088 6.65341C13.7202 6.65341 14.1733 6.76136 14.5682 6.97727C14.9631 7.19318 15.2727 7.48437 15.4972 7.85085C15.7216 8.21733 15.8338 8.625 15.8338 9.07386C15.8338 9.39489 15.7756 9.70881 15.6591 10.0156C15.5455 10.3196 15.3466 10.6591 15.0625 11.0341C14.7812 11.4062 14.3906 11.8608 13.8906 12.3977L11.9304 14.4943V14.5625H15.9872V15.5H10.4815ZM20.4744 15.6193C19.9744 15.6193 19.5241 15.5199 19.1236 15.321C18.723 15.1222 18.402 14.8494 18.1605 14.5028C17.919 14.1562 17.7869 13.7614 17.7642 13.3182H18.7869C18.8267 13.7131 19.0057 14.0398 19.3239 14.2983C19.6449 14.554 20.0284 14.6818 20.4744 14.6818C20.8324 14.6818 21.1506 14.598 21.429 14.4304C21.7102 14.2628 21.9304 14.0327 22.0895 13.7401C22.2514 13.4446 22.3324 13.1108 22.3324 12.7386C22.3324 12.358 22.2486 12.0185 22.081 11.7202C21.9162 11.419 21.6889 11.1818 21.3991 11.0085C21.1094 10.8352 20.7784 10.7472 20.4062 10.7443C20.1392 10.7415 19.8651 10.7827 19.5838 10.8679C19.3026 10.9503 19.071 11.0568 18.8892 11.1875L17.9006 11.0682L18.429 6.77273H22.9631V7.71023H19.3153L19.0085 10.2841H19.0597C19.2386 10.142 19.4631 10.0241 19.733 9.9304C20.0028 9.83665 20.2841 9.78977 20.5767 9.78977C21.1108 9.78977 21.5866 9.91761 22.0043 10.1733C22.4247 10.4261 22.7543 10.7727 22.9929 11.2131C23.2344 11.6534 23.3551 12.1562 23.3551 12.7216C23.3551 13.2784 23.2301 13.7756 22.9801 14.2131C22.733 14.6477 22.392 14.9915 21.9574 15.2443C21.5227 15.4943 21.0284 15.6193 20.4744 15.6193Z" fill="white"/>
</svg>